<svg width="48" height="48" viewBox="0 0 48 48" fill="none" xmlns="http://www.w3.org/2000/svg">
<path d="M40.5061 8.99707L35.9566 48H12.0481L7.49414 8.99707H40.5061Z" fill="#E4E7E7"/>
<path d="M11.6982 45.009L12.0477 47.9999H35.9562L36.3042 45.009H11.6982Z" fill="#C8CBCB"/>
<path d="M7.66943 10.5L11.2468 41.1449L40.3064 10.701L40.3317 10.5H7.66943Z" fill="#C8CBCB"/>
<path d="M24 18C19.0305 18 15 22.0305 15 27C15 31.9711 19.0305 36.0001 24 36.0001C28.9711 36.0001 33.0001 31.9711 33.0001 27C33.0001 22.029 28.9709 18 24 18ZM28.4443 30.9991C27.6448 30.5566 26.5873 30.2341 25.3918 30.0886L25.4533 29.6086C26.3727 29.0956 26.9997 28.1251 26.9997 27.0002C26.9997 25.3427 25.6572 24.0002 23.9997 24.0002C22.3437 24.0002 20.9998 25.3427 20.9998 27.0002C20.9998 28.1251 21.6282 29.0943 22.5462 29.6071L22.6092 30.0871C21.4123 30.2341 20.3563 30.5551 19.5568 30.9976C18.5998 29.9356 17.9998 28.5436 17.9998 27C17.9998 23.6865 20.6864 21.0001 23.9997 21.0001C27.3117 21.0001 29.9996 23.6867 29.9996 27C30 28.5435 29.403 29.9356 28.4443 30.9991Z" fill="#349886"/>
<path d="M7.49996 4.5H40.4998C42.1573 4.5 43.4998 5.84395 43.4998 7.49996V10.4999H4.5V7.49996C4.5 5.84246 5.84395 4.5 7.49996 4.5Z" fill="#2B414D"/>
<path d="M12 0H36C37.6575 0 38.9999 1.34395 38.9999 2.99996V4.50002H9V2.99996C9 1.34246 10.3439 0 12 0Z" fill="#475F6C"/>
<path d="M24 24.0001C22.344 24.0001 21.0001 25.3425 21.0001 27C21.0001 28.0515 21.5596 28.9486 22.3786 29.484L26.4257 25.245C25.881 24.4936 25.0005 24.0001 24 24.0001ZM24 18C19.0305 18 15 22.0305 15 27C15 29.757 16.242 32.2186 18.192 33.8701L21.6434 30.2551C20.8455 30.4276 20.1329 30.6796 19.557 30.9991C18.5999 29.9356 18 28.5436 18 27C18 23.6865 20.6865 21.0001 23.9999 21.0001C25.8029 21.0001 27.4003 21.8117 28.4999 23.0702L30.5878 20.8832C28.9456 19.113 26.6068 18 24 18Z" fill="#2E8676"/>
</svg>
