<svg width="16" height="16" viewBox="0 0 16 16" fill="none" xmlns="http://www.w3.org/2000/svg">
<g clip-path="url(#clip0_2290_2476)">
<path d="M14.116 4.54157C14.4684 4.18918 14.6665 3.71121 14.6665 3.2128C14.6666 2.71439 14.4687 2.23637 14.1163 1.8839C13.7639 1.53143 13.2859 1.33338 12.7875 1.33331C12.2891 1.33325 11.8111 1.53118 11.4586 1.88357L2.56128 10.7829C2.4065 10.9372 2.29203 11.1273 2.22795 11.3362L1.34728 14.2376C1.33005 14.2952 1.32875 14.3565 1.34352 14.4148C1.35828 14.4731 1.38856 14.5264 1.43115 14.5689C1.47373 14.6114 1.52703 14.6416 1.58539 14.6563C1.64375 14.671 1.70499 14.6696 1.76262 14.6522L4.66462 13.7722C4.8734 13.7087 5.0634 13.595 5.21795 13.4409L14.116 4.54157Z" stroke="white" stroke-linecap="round" stroke-linejoin="round"/>
<path d="M10 3.33362L12.6667 6.00028" stroke="white" stroke-linecap="round" stroke-linejoin="round"/>
</g>
<defs>
<clipPath id="clip0_2290_2476">
<rect width="16" height="16" fill="white"/>
</clipPath>
</defs>
</svg>
