<svg width="16" height="16" viewBox="0 0 16 16" fill="none" xmlns="http://www.w3.org/2000/svg">
<g clip-path="url(#clip0_2165_287)">
<g clip-path="url(#clip1_2165_287)">
<path d="M2.56655 5.74667C2.46925 5.30835 2.48419 4.85256 2.60999 4.42156C2.73579 3.99056 2.96838 3.5983 3.2862 3.28115C3.60401 2.964 3.99676 2.73223 4.42802 2.60733C4.85929 2.48243 5.31511 2.46844 5.75322 2.56667C5.99436 2.18954 6.32655 1.87917 6.71919 1.66419C7.11182 1.44921 7.55225 1.33652 7.99988 1.33652C8.44752 1.33652 8.88795 1.44921 9.28058 1.66419C9.67322 1.87917 10.0054 2.18954 10.2466 2.56667C10.6853 2.46802 11.1419 2.48194 11.5739 2.60714C12.0058 2.73235 12.3991 2.96476 12.7171 3.28277C13.0351 3.60078 13.2675 3.99405 13.3927 4.426C13.5179 4.85796 13.5319 5.31456 13.4332 5.75333C13.8104 5.99447 14.1207 6.32667 14.3357 6.7193C14.5507 7.11193 14.6634 7.55237 14.6634 8C14.6634 8.44764 14.5507 8.88807 14.3357 9.2807C14.1207 9.67333 13.8104 10.0055 13.4332 10.2467C13.5314 10.6848 13.5175 11.1406 13.3926 11.5719C13.2677 12.0031 13.0359 12.3959 12.7187 12.7137C12.4016 13.0315 12.0093 13.2641 11.5783 13.3899C11.1473 13.5157 10.6915 13.5306 10.2532 13.4333C10.0124 13.8119 9.67994 14.1236 9.28663 14.3395C8.89333 14.5555 8.4519 14.6687 8.00322 14.6687C7.55453 14.6687 7.1131 14.5555 6.7198 14.3395C6.3265 14.1236 5.99404 13.8119 5.75322 13.4333C5.31511 13.5316 4.85929 13.5176 4.42802 13.3927C3.99676 13.2678 3.60401 13.036 3.2862 12.7189C2.96838 12.4017 2.73579 12.0094 2.60999 11.5784C2.48419 11.1474 2.46925 10.6917 2.56655 10.2533C2.18652 10.0128 1.87349 9.68012 1.65658 9.28614C1.43967 8.89217 1.32593 8.44974 1.32593 8C1.32593 7.55026 1.43967 7.10783 1.65658 6.71386C1.87349 6.31989 2.18652 5.98717 2.56655 5.74667Z" stroke="white" stroke-width="2" stroke-linecap="round" stroke-linejoin="round"/>
<g clip-path="url(#clip2_2165_287)">
<path d="M9.33325 10C9.33325 10.5523 9.78097 11 10.3333 11C10.8855 11 11.3333 10.5523 11.3333 10C11.3333 9.44772 10.8855 9 10.3333 9C9.78097 9 9.33325 9.44772 9.33325 10Z" stroke="white" stroke-linecap="round" stroke-linejoin="round"/>
<path d="M7 6C7 6.55228 7.44772 7 8 7C8.55228 7 9 6.55228 9 6C9 5.44772 8.55228 5 8 5C7.44772 5 7 5.44772 7 6Z" stroke="white" stroke-linecap="round" stroke-linejoin="round"/>
<path d="M4.66675 10C4.66675 10.5523 5.11446 11 5.66675 11C6.21903 11 6.66675 10.5523 6.66675 10C6.66675 9.44772 6.21903 9 5.66675 9C5.11446 9 4.66675 9.44772 4.66675 10Z" stroke="white" stroke-linecap="round" stroke-linejoin="round"/>
<path d="M7.49658 6.86333L6.16992 9.14" stroke="white" stroke-linecap="round" stroke-linejoin="round"/>
<path d="M9.83008 9.13667L8.50341 6.86333" stroke="white" stroke-linecap="round" stroke-linejoin="round"/>
</g>
</g>
</g>
<defs>
<clipPath id="clip0_2165_287">
<rect width="16" height="16" fill="white"/>
</clipPath>
<clipPath id="clip1_2165_287">
<rect width="16" height="16" fill="white"/>
</clipPath>
<clipPath id="clip2_2165_287">
<rect width="8" height="8" fill="white" transform="matrix(0 1 -1 0 12 4)"/>
</clipPath>
</defs>
</svg>
