<svg width="16" height="16" viewBox="0 0 16 16" fill="none" xmlns="http://www.w3.org/2000/svg">
<g clip-path="url(#clip0_2165_348)">
<g clip-path="url(#clip1_2165_348)">
<path d="M6.7334 1.45467C7.57008 1.29275 8.43005 1.29275 9.26673 1.45467" stroke="white" stroke-width="2" stroke-linecap="round" stroke-linejoin="round"/>
<path d="M9.26673 14.5453C8.43005 14.7073 7.57008 14.7073 6.7334 14.5453" stroke="white" stroke-width="2" stroke-linecap="round" stroke-linejoin="round"/>
<path d="M11.7393 2.48067C12.4469 2.96015 13.0557 3.57125 13.5326 4.28067" stroke="white" stroke-width="2" stroke-linecap="round" stroke-linejoin="round"/>
<path d="M1.45469 9.26667C1.29277 8.42998 1.29277 7.57002 1.45469 6.73333" stroke="white" stroke-width="2" stroke-linecap="round" stroke-linejoin="round"/>
<path d="M13.5192 11.7393C13.0398 12.447 12.4287 13.0558 11.7192 13.5327" stroke="white" stroke-width="2" stroke-linecap="round" stroke-linejoin="round"/>
<path d="M14.5454 6.73333C14.7073 7.57002 14.7073 8.42998 14.5454 9.26667" stroke="white" stroke-width="2" stroke-linecap="round" stroke-linejoin="round"/>
<path d="M2.48071 4.26067C2.9602 3.55302 3.57129 2.94419 4.28071 2.46733" stroke="white" stroke-width="2" stroke-linecap="round" stroke-linejoin="round"/>
<path d="M4.26062 13.5193C3.55297 13.0398 2.94414 12.4288 2.46729 11.7193" stroke="white" stroke-width="2" stroke-linecap="round" stroke-linejoin="round"/>
</g>
</g>
<defs>
<clipPath id="clip0_2165_348">
<rect width="16" height="16" fill="white"/>
</clipPath>
<clipPath id="clip1_2165_348">
<rect width="16" height="16" fill="white"/>
</clipPath>
</defs>
</svg>
